<?xml version="1.0" standalone="no"?>
<!DOCTYPE svg PUBLIC "-//W3C//DTD SVG 20010904//EN"
 "http://www.w3.org/TR/2001/REC-SVG-20010904/DTD/svg10.dtd">

 
<svg version="1.0" xmlns="http://www.w3.org/2000/svg"
 width="402.000000pt" height="95.000000pt" viewBox="0 0 402.000000 95.000000"
 preserveAspectRatio="xMidYMid meet">
    <g transform="translate(0.000000,95.000000) scale(0.100000,-0.100000)"
    fill="#1D40EE" stroke="none">
    <path d="M210 733 l0 -137 28 27 c27 26 32 27 140 27 l112 0 0 110 0 110 -140
    0 -140 0 0 -137z m172 66 l3 -21 28 22 27 21 0 -61 0 -61 -27 21 -28 22 -3
    -21 c-3 -19 -10 -21 -63 -21 l-59 0 0 60 0 60 59 0 c53 0 60 -2 63 -21z"/>
    <path d="M1769 751 l-11 -32 -22 20 c-28 26 -32 26 -40 -1 l-6 -23 -15 23
    c-18 25 -35 29 -35 9 0 -17 57 -97 69 -97 5 0 11 9 14 21 l6 20 21 -21 c27
    -27 35 -19 48 42 7 38 7 50 -4 59 -11 9 -16 5 -25 -20z"/>
    <path d="M1826 738 c-21 -30 -20 -54 4 -78 24 -24 43 -25 64 -4 24 23 20 70
    -6 88 -30 22 -44 20 -62 -6z m44 -38 c0 -11 -4 -20 -10 -20 -5 0 -10 9 -10 20
    0 11 5 20 10 20 6 0 10 -9 10 -20z"/>
    <path d="M1553 720 c3 -11 1 -23 -5 -26 -16 -10 78 -98 97 -90 22 8 15 41 -10
    41 -11 0 -21 8 -23 18 -2 9 1 17 7 17 20 0 11 20 -13 30 -13 5 -27 14 -31 19
    -11 19 -28 12 -22 -9z"/>
    <path d="M735 648 c-2 -7 -25 -105 -50 -218 -26 -113 -49 -213 -52 -223 -4
    -16 1 -18 43 -15 l49 3 46 200 c25 110 49 215 52 233 l7 32 -46 0 c-27 0 -46
    -5 -49 -12z"/>
    <path d="M3045 628 c-4 -18 -27 -118 -51 -222 -24 -104 -44 -195 -44 -202 0
    -10 13 -14 44 -14 l44 0 12 53 c26 120 57 166 101 152 23 -8 24 -39 4 -115
    -23 -86 -22 -90 29 -90 l44 0 21 91 c26 113 26 144 1 169 -24 24 -82 27 -122
    6 -33 -18 -33 -19 -8 89 27 118 28 115 -24 115 -42 0 -45 -2 -51 -32z"/>
    <path d="M255 608 c-2 -7 -22 -96 -45 -198 -23 -102 -44 -193 -47 -203 -4 -16
    1 -18 44 -15 l48 3 19 83 18 82 73 0 c79 0 75 -3 89 63 l6 27 -74 0 -74 0 10
    40 10 40 74 0 c71 0 75 1 84 26 24 63 22 64 -110 64 -88 0 -122 -3 -125 -12z"/>
    <path d="M581 607 c-31 -15 -45 -62 -24 -82 26 -26 73 -13 93 26 9 16 8 26 -5
    45 -17 27 -29 29 -64 11z"/>
    <path d="M2128 606 c-49 -17 -112 -68 -139 -112 l-22 -36 -36 36 c-48 47 -98
    66 -169 66 -70 0 -117 -18 -167 -62 -34 -29 -41 -31 -100 -29 -92 3 -155 -35
    -155 -94 0 -36 17 -49 95 -68 39 -9 50 -16 50 -32 0 -11 -8 -21 -18 -23 -30
    -6 -67 7 -67 23 0 11 -13 15 -51 15 -51 0 -51 0 -44 -27 16 -64 78 -91 172
    -74 l56 11 47 -49 c112 -117 296 -103 385 30 l31 45 33 -20 c47 -27 134 -26
    194 3 76 37 137 108 162 189 6 22 6 22 -98 22 -111 0 -117 -3 -117 -51 0 -16
    7 -19 50 -19 l50 0 -17 -26 c-35 -54 -132 -71 -178 -31 -36 30 -44 97 -18 146
    49 94 149 123 218 63 28 -25 45 -32 77 -32 40 0 40 0 34 32 -7 36 -47 82 -88
    104 -34 17 -121 17 -170 0z m-273 -75 c22 -10 54 -34 72 -52 31 -33 31 -35 20
    -86 -10 -47 -8 -59 12 -107 20 -50 21 -57 8 -83 -39 -73 -116 -117 -208 -118
    -56 0 -73 4 -115 30 -27 17 -59 46 -71 64 -21 31 -22 36 -8 51 25 28 30 78 10
    100 -10 11 -24 20 -32 20 -7 0 -13 7 -13 15 0 11 11 15 40 15 45 0 52 18 24
    58 -15 22 -15 25 7 49 56 61 174 81 254 44z m-343 -135 c18 -26 8 -38 -24 -31
    -46 10 -57 23 -35 40 19 14 46 10 59 -9z"/>
    <path d="M1694 427 c-2 -7 -3 -60 -2 -118 3 -89 5 -104 20 -107 20 -4 157 96
    158 114 0 13 -143 124 -160 124 -6 0 -13 -6 -16 -13z m136 -86 l31 -26 -71
    -53 c-39 -29 -75 -50 -80 -47 -11 7 -14 198 -4 208 7 6 65 -32 124 -82z"/>
    <path d="M2841 533 c-6 -21 -11 -44 -11 -50 0 -7 -11 -13 -24 -13 -28 0 -30
    -3 -40 -42 -5 -23 -3 -28 12 -28 34 0 34 6 -2 -148 l-14 -62 47 0 48 0 22 99
    c21 94 24 100 49 103 22 2 28 9 33 41 5 34 4 37 -18 37 -18 0 -23 4 -19 18 2
    9 7 32 11 50 l7 32 -46 0 c-44 0 -45 -1 -55 -37z"/>
    <path d="M505 353 c-15 -65 -29 -128 -32 -140 -5 -21 -2 -23 40 -23 35 0 47 4
    51 18 12 38 56 235 56 248 0 10 -13 14 -44 14 l-44 0 -27 -117z"/>
    <path d="M821 339 c-17 -72 -31 -135 -31 -140 0 -5 20 -9 45 -9 48 0 49 1 70
    110 14 70 63 116 93 86 15 -14 14 -24 -4 -106 l-21 -90 48 0 47 0 18 82 c12
    56 25 90 41 105 51 52 81 13 59 -74 -31 -126 -33 -115 21 -111 l48 3 17 70
    c23 99 23 160 -2 185 -27 27 -94 27 -138 0 -32 -20 -32 -20 -52 0 -25 25 -81
    26 -115 4 -23 -15 -25 -15 -25 0 0 12 -10 16 -44 16 l-44 0 -31 -131z"/>
    <path d="M2510 454 c-45 -20 -68 -41 -91 -86 -80 -157 117 -257 246 -125 l40
    42 -42 3 c-32 2 -50 -3 -73 -19 -40 -30 -83 -18 -88 24 l-3 27 110 0 111 0 0
    41 c0 22 -5 49 -10 60 -25 46 -129 64 -200 33z m120 -63 c16 -30 14 -31 -50
    -31 -46 0 -60 3 -60 15 0 36 92 49 110 16z"/>
    <path d="M3405 451 c-71 -32 -105 -86 -105 -162 0 -116 168 -145 265 -46 l40
    42 -47 3 c-37 2 -51 -1 -67 -17 -38 -38 -91 -22 -91 26 0 23 2 23 110 23 l110
    0 0 43 c0 44 -19 77 -57 96 -33 17 -113 13 -158 -8z m113 -53 c27 -27 13 -38
    -48 -38 -64 0 -74 9 -38 34 27 19 69 21 86 4z"/>
    <path d="M3697 463 c-2 -5 -17 -62 -31 -128 -15 -66 -29 -126 -31 -132 -3 -9
    10 -13 44 -13 l48 0 17 80 c15 65 23 84 48 105 22 19 38 25 55 20 24 -6 26 -3
    37 48 6 24 4 27 -19 27 -14 0 -40 -7 -57 -16 -28 -15 -30 -15 -25 0 5 13 -1
    16 -38 16 -24 0 -46 -3 -48 -7z"/>
    </g>
</svg>
